<?xml version="1.0" encoding="UTF-8" standalone="no"?>
<!DOCTYPE svg PUBLIC "-//W3C//DTD SVG 1.1//EN" "http://www.w3.org/Graphics/SVG/1.1/DTD/svg11.dtd">
<!-- Generated by graphviz version 2.40.1 (20161225.0304)
 -->
<!-- Title: %0 Pages: 1 -->
<svg width="5281pt" height="188pt" viewBox="0.00 0.00 5280.71 188.00" xmlns="http://www.w3.org/2000/svg" xmlns:xlink="http://www.w3.org/1999/xlink">
<g id="graph0" class="graph" transform="scale(1 1) rotate(0) translate(4 184)">
<title>%0</title>
<polygon fill="#ffffff" stroke="transparent" points="-4,4 -4,-184 5276.7112,-184 5276.7112,4 -4,4"/>
<!-- Core Pure Mathematics Book 1 -->
<g id="node1" class="node">
<title>Core Pure Mathematics Book 1</title>
<ellipse fill="none" stroke="#000000" cx="2507.5642" cy="-162" rx="132.5886" ry="18"/>
<text text-anchor="middle" x="2507.5642" y="-157.8" font-family="Times,serif" font-size="14.00" fill="#000000">Core Pure Mathematics Book 1</text>
</g>
<!-- Chapter 1: Complex Numbers -->
<g id="node2" class="node">
<title>Chapter 1: Complex Numbers</title>
<ellipse fill="none" stroke="#000000" cx="329.5642" cy="-90" rx="127.3324" ry="18"/>
<text text-anchor="middle" x="329.5642" y="-85.8" font-family="Times,serif" font-size="14.00" fill="#000000">Chapter 1: Complex Numbers</text>
</g>
<!-- Core Pure Mathematics Book 1&#45;&#45;Chapter 1: Complex Numbers -->
<g id="edge1" class="edge">
<title>Core Pure Mathematics Book 1--Chapter 1: Complex Numbers</title>
<path fill="none" stroke="#000000" d="M2378.2459,-157.725C1989.568,-144.8762 835.1941,-106.715 453.5784,-94.0996"/>
</g>
<!-- Chapter 2: Argand Diagrams -->
<g id="node10" class="node">
<title>Chapter 2: Argand Diagrams</title>
<ellipse fill="none" stroke="#000000" cx="1009.5642" cy="-90" rx="122.7164" ry="18"/>
<text text-anchor="middle" x="1009.5642" y="-85.8" font-family="Times,serif" font-size="14.00" fill="#000000">Chapter 2: Argand Diagrams</text>
</g>
<!-- Core Pure Mathematics Book 1&#45;&#45;Chapter 2: Argand Diagrams -->
<g id="edge9" class="edge">
<title>Core Pure Mathematics Book 1--Chapter 2: Argand Diagrams</title>
<path fill="none" stroke="#000000" d="M2382.1013,-155.9697C2096.9149,-142.2625 1403.3159,-108.9253 1126.4878,-95.6198"/>
</g>
<!-- Chapter 3: Series -->
<g id="node18" class="node">
<title>Chapter 3: Series</title>
<ellipse fill="none" stroke="#000000" cx="1543.5642" cy="-90" rx="77.5839" ry="18"/>
<text text-anchor="middle" x="1543.5642" y="-85.8" font-family="Times,serif" font-size="14.00" fill="#000000">Chapter 3: Series</text>
</g>
<!-- Core Pure Mathematics Book 1&#45;&#45;Chapter 3: Series -->
<g id="edge17" class="edge">
<title>Core Pure Mathematics Book 1--Chapter 3: Series</title>
<path fill="none" stroke="#000000" d="M2390.8034,-153.2793C2189.7929,-138.266 1783.944,-107.9537 1617.4181,-95.5161"/>
</g>
<!-- Chapter 4: Roots of Polynomials -->
<g id="node22" class="node">
<title>Chapter 4: Roots of Polynomials</title>
<ellipse fill="none" stroke="#000000" cx="1993.5642" cy="-90" rx="137.784" ry="18"/>
<text text-anchor="middle" x="1993.5642" y="-85.8" font-family="Times,serif" font-size="14.00" fill="#000000">Chapter 4: Roots of Polynomials</text>
</g>
<!-- Core Pure Mathematics Book 1&#45;&#45;Chapter 4: Roots of Polynomials -->
<g id="edge21" class="edge">
<title>Core Pure Mathematics Book 1--Chapter 4: Roots of Polynomials</title>
<path fill="none" stroke="#000000" d="M2415.0777,-149.0447C2322.5878,-136.0889 2181.0566,-116.2635 2087.9146,-103.2164"/>
</g>
<!-- Chapter 5: Volumes of Revolution -->
<g id="node29" class="node">
<title>Chapter 5: Volumes of Revolution</title>
<ellipse fill="none" stroke="#000000" cx="2507.5642" cy="-90" rx="144.7093" ry="18"/>
<text text-anchor="middle" x="2507.5642" y="-85.8" font-family="Times,serif" font-size="14.00" fill="#000000">Chapter 5: Volumes of Revolution</text>
</g>
<!-- Core Pure Mathematics Book 1&#45;&#45;Chapter 5: Volumes of Revolution -->
<g id="edge28" class="edge">
<title>Core Pure Mathematics Book 1--Chapter 5: Volumes of Revolution</title>
<path fill="none" stroke="#000000" d="M2507.5642,-143.8314C2507.5642,-133 2507.5642,-119.2876 2507.5642,-108.4133"/>
</g>
<!-- Chapter 6: Matricies -->
<g id="node35" class="node">
<title>Chapter 6: Matricies</title>
<ellipse fill="none" stroke="#000000" cx="3065.5642" cy="-90" rx="90.3236" ry="18"/>
<text text-anchor="middle" x="3065.5642" y="-85.8" font-family="Times,serif" font-size="14.00" fill="#000000">Chapter 6: Matricies</text>
</g>
<!-- Core Pure Mathematics Book 1&#45;&#45;Chapter 6: Matricies -->
<g id="edge34" class="edge">
<title>Core Pure Mathematics Book 1--Chapter 6: Matricies</title>
<path fill="none" stroke="#000000" d="M2603.8054,-149.5818C2713.0793,-135.4819 2889.1389,-112.7646 2989.3354,-99.836"/>
</g>
<!-- Chapter 7: Linear Transformations -->
<g id="node43" class="node">
<title>Chapter 7: Linear Transformations</title>
<ellipse fill="none" stroke="#000000" cx="3745.5642" cy="-90" rx="145.2641" ry="18"/>
<text text-anchor="middle" x="3745.5642" y="-85.8" font-family="Times,serif" font-size="14.00" fill="#000000">Chapter 7: Linear Transformations</text>
</g>
<!-- Core Pure Mathematics Book 1&#45;&#45;Chapter 7: Linear Transformations -->
<g id="edge42" class="edge">
<title>Core Pure Mathematics Book 1--Chapter 7: Linear Transformations</title>
<path fill="none" stroke="#000000" d="M2629.6565,-154.8993C2863.4455,-141.3025 3372.4845,-111.6977 3613.7117,-97.6683"/>
</g>
<!-- Chapter 8: Proof by Induction -->
<g id="node51" class="node">
<title>Chapter 8: Proof by Induction</title>
<ellipse fill="none" stroke="#000000" cx="4299.5642" cy="-90" rx="126.7953" ry="18"/>
<text text-anchor="middle" x="4299.5642" y="-85.8" font-family="Times,serif" font-size="14.00" fill="#000000">Chapter 8: Proof by Induction</text>
</g>
<!-- Core Pure Mathematics Book 1&#45;&#45;Chapter 8: Proof by Induction -->
<g id="edge50" class="edge">
<title>Core Pure Mathematics Book 1--Chapter 8: Proof by Induction</title>
<path fill="none" stroke="#000000" d="M2636.1554,-157.278C2881.7227,-148.2013 3434.414,-127.488 3899.5642,-108 3993.3268,-104.0717 4099.4358,-99.2809 4178.7949,-95.6297"/>
</g>
<!-- Chapter 9: Vectors -->
<g id="node56" class="node">
<title>Chapter 9: Vectors</title>
<ellipse fill="none" stroke="#000000" cx="4855.5642" cy="-90" rx="83.947" ry="18"/>
<text text-anchor="middle" x="4855.5642" y="-85.8" font-family="Times,serif" font-size="14.00" fill="#000000">Chapter 9: Vectors</text>
</g>
<!-- Core Pure Mathematics Book 1&#45;&#45;Chapter 9: Vectors -->
<g id="edge55" class="edge">
<title>Core Pure Mathematics Book 1--Chapter 9: Vectors</title>
<path fill="none" stroke="#000000" d="M2638.7872,-158.9958C2950.4756,-151.7133 3759.7935,-131.9431 4435.5642,-108 4552.9941,-103.8394 4688.8389,-97.7926 4773.4899,-93.8778"/>
</g>
<!-- Ex1A -->
<g id="node3" class="node">
<title>Ex1A</title>
<ellipse fill="none" stroke="#000000" cx="33.5642" cy="-18" rx="33.6286" ry="18"/>
<text text-anchor="middle" x="33.5642" y="-13.8" font-family="Times,serif" font-size="14.00" fill="#000000">Ex1A</text>
</g>
<!-- Chapter 1: Complex Numbers&#45;&#45;Ex1A -->
<g id="edge2" class="edge">
<title>Chapter 1: Complex Numbers--Ex1A</title>
<path fill="none" stroke="#000000" d="M246.5236,-76.3086C196.6564,-67.0946 132.285,-53.4419 76.5642,-36 70.8489,-34.211 64.8448,-31.9522 59.1964,-29.6447"/>
</g>
<!-- Ex1B -->
<g id="node4" class="node">
<title>Ex1B</title>
<ellipse fill="none" stroke="#000000" cx="118.5642" cy="-18" rx="33.0662" ry="18"/>
<text text-anchor="middle" x="118.5642" y="-13.8" font-family="Times,serif" font-size="14.00" fill="#000000">Ex1B</text>
</g>
<!-- Chapter 1: Complex Numbers&#45;&#45;Ex1B -->
<g id="edge3" class="edge">
<title>Chapter 1: Complex Numbers--Ex1B</title>
<path fill="none" stroke="#000000" d="M273.9255,-73.6879C240.7443,-63.5975 197.9363,-49.9426 160.5642,-36 155.2127,-34.0035 149.5491,-31.7062 144.1724,-29.4352"/>
</g>
<!-- Ex1C -->
<g id="node5" class="node">
<title>Ex1C</title>
<ellipse fill="none" stroke="#000000" cx="202.5642" cy="-18" rx="33.0662" ry="18"/>
<text text-anchor="middle" x="202.5642" y="-13.8" font-family="Times,serif" font-size="14.00" fill="#000000">Ex1C</text>
</g>
<!-- Chapter 1: Complex Numbers&#45;&#45;Ex1C -->
<g id="edge4" class="edge">
<title>Chapter 1: Complex Numbers--Ex1C</title>
<path fill="none" stroke="#000000" d="M298.4965,-72.3868C276.0258,-59.6475 246.1482,-42.709 225.7437,-31.1411"/>
</g>
<!-- Ex1D -->
<g id="node6" class="node">
<title>Ex1D</title>
<ellipse fill="none" stroke="#000000" cx="287.5642" cy="-18" rx="33.6286" ry="18"/>
<text text-anchor="middle" x="287.5642" y="-13.8" font-family="Times,serif" font-size="14.00" fill="#000000">Ex1D</text>
</g>
<!-- Chapter 1: Complex Numbers&#45;&#45;Ex1D -->
<g id="edge5" class="edge">
<title>Chapter 1: Complex Numbers--Ex1D</title>
<path fill="none" stroke="#000000" d="M318.9659,-71.8314C312.4532,-60.6667 304.1548,-46.441 297.7246,-35.4177"/>
</g>
<!-- Ex1E -->
<g id="node7" class="node">
<title>Ex1E</title>
<ellipse fill="none" stroke="#000000" cx="371.5642" cy="-18" rx="32.4846" ry="18"/>
<text text-anchor="middle" x="371.5642" y="-13.8" font-family="Times,serif" font-size="14.00" fill="#000000">Ex1E</text>
</g>
<!-- Chapter 1: Complex Numbers&#45;&#45;Ex1E -->
<g id="edge6" class="edge">
<title>Chapter 1: Complex Numbers--Ex1E</title>
<path fill="none" stroke="#000000" d="M340.1626,-71.8314C346.6753,-60.6667 354.9736,-46.441 361.4039,-35.4177"/>
</g>
<!-- Ex1F -->
<g id="node8" class="node">
<title>Ex1F</title>
<ellipse fill="none" stroke="#000000" cx="453.5642" cy="-18" rx="31.9224" ry="18"/>
<text text-anchor="middle" x="453.5642" y="-13.8" font-family="Times,serif" font-size="14.00" fill="#000000">Ex1F</text>
</g>
<!-- Chapter 1: Complex Numbers&#45;&#45;Ex1F -->
<g id="edge7" class="edge">
<title>Chapter 1: Complex Numbers--Ex1F</title>
<path fill="none" stroke="#000000" d="M359.898,-72.3868C381.838,-59.6475 411.0098,-42.709 430.9323,-31.1411"/>
</g>
<!-- Mixed Exercise 1 -->
<g id="node9" class="node">
<title>Mixed Exercise 1</title>
<ellipse fill="none" stroke="#000000" cx="582.5642" cy="-18" rx="79.2942" ry="18"/>
<text text-anchor="middle" x="582.5642" y="-13.8" font-family="Times,serif" font-size="14.00" fill="#000000">Mixed Exercise 1</text>
</g>
<!-- Chapter 1: Complex Numbers&#45;&#45;Mixed Exercise 1 -->
<g id="edge8" class="edge">
<title>Chapter 1: Complex Numbers--Mixed Exercise 1</title>
<path fill="none" stroke="#000000" d="M386.3424,-73.8418C430.3405,-61.3206 490.7032,-44.1423 532.8178,-32.1571"/>
</g>
<!-- Ex2A -->
<g id="node11" class="node">
<title>Ex2A</title>
<ellipse fill="none" stroke="#000000" cx="713.5642" cy="-18" rx="33.6286" ry="18"/>
<text text-anchor="middle" x="713.5642" y="-13.8" font-family="Times,serif" font-size="14.00" fill="#000000">Ex2A</text>
</g>
<!-- Chapter 2: Argand Diagrams&#45;&#45;Ex2A -->
<g id="edge10" class="edge">
<title>Chapter 2: Argand Diagrams--Ex2A</title>
<path fill="none" stroke="#000000" d="M927.6718,-76.5205C877.6472,-67.3044 812.7136,-53.5761 756.5642,-36 750.8489,-34.211 744.8448,-31.9522 739.1964,-29.6447"/>
</g>
<!-- Ex2B -->
<g id="node12" class="node">
<title>Ex2B</title>
<ellipse fill="none" stroke="#000000" cx="798.5642" cy="-18" rx="33.0662" ry="18"/>
<text text-anchor="middle" x="798.5642" y="-13.8" font-family="Times,serif" font-size="14.00" fill="#000000">Ex2B</text>
</g>
<!-- Chapter 2: Argand Diagrams&#45;&#45;Ex2B -->
<g id="edge11" class="edge">
<title>Chapter 2: Argand Diagrams--Ex2B</title>
<path fill="none" stroke="#000000" d="M954.3094,-73.8046C921.075,-63.7029 878.0806,-49.9964 840.5642,-36 835.2127,-34.0035 829.5491,-31.7062 824.1724,-29.4352"/>
</g>
<!-- Ex2C -->
<g id="node13" class="node">
<title>Ex2C</title>
<ellipse fill="none" stroke="#000000" cx="882.5642" cy="-18" rx="33.0662" ry="18"/>
<text text-anchor="middle" x="882.5642" y="-13.8" font-family="Times,serif" font-size="14.00" fill="#000000">Ex2C</text>
</g>
<!-- Chapter 2: Argand Diagrams&#45;&#45;Ex2C -->
<g id="edge12" class="edge">
<title>Chapter 2: Argand Diagrams--Ex2C</title>
<path fill="none" stroke="#000000" d="M978.8211,-72.5708C956.2107,-59.7524 925.9703,-42.6082 905.4619,-30.9813"/>
</g>
<!-- Ex2D -->
<g id="node14" class="node">
<title>Ex2D</title>
<ellipse fill="none" stroke="#000000" cx="967.5642" cy="-18" rx="33.6286" ry="18"/>
<text text-anchor="middle" x="967.5642" y="-13.8" font-family="Times,serif" font-size="14.00" fill="#000000">Ex2D</text>
</g>
<!-- Chapter 2: Argand Diagrams&#45;&#45;Ex2D -->
<g id="edge13" class="edge">
<title>Chapter 2: Argand Diagrams--Ex2D</title>
<path fill="none" stroke="#000000" d="M998.9659,-71.8314C992.4532,-60.6667 984.1548,-46.441 977.7246,-35.4177"/>
</g>
<!-- Ex2E -->
<g id="node15" class="node">
<title>Ex2E</title>
<ellipse fill="none" stroke="#000000" cx="1051.5642" cy="-18" rx="32.4846" ry="18"/>
<text text-anchor="middle" x="1051.5642" y="-13.8" font-family="Times,serif" font-size="14.00" fill="#000000">Ex2E</text>
</g>
<!-- Chapter 2: Argand Diagrams&#45;&#45;Ex2E -->
<g id="edge14" class="edge">
<title>Chapter 2: Argand Diagrams--Ex2E</title>
<path fill="none" stroke="#000000" d="M1020.1626,-71.8314C1026.6753,-60.6667 1034.9736,-46.441 1041.4039,-35.4177"/>
</g>
<!-- Ex2F -->
<g id="node16" class="node">
<title>Ex2F</title>
<ellipse fill="none" stroke="#000000" cx="1133.5642" cy="-18" rx="31.9224" ry="18"/>
<text text-anchor="middle" x="1133.5642" y="-13.8" font-family="Times,serif" font-size="14.00" fill="#000000">Ex2F</text>
</g>
<!-- Chapter 2: Argand Diagrams&#45;&#45;Ex2F -->
<g id="edge15" class="edge">
<title>Chapter 2: Argand Diagrams--Ex2F</title>
<path fill="none" stroke="#000000" d="M1039.898,-72.3868C1061.838,-59.6475 1091.0098,-42.709 1110.9323,-31.1411"/>
</g>
<!-- Mixed Exercise 2 -->
<g id="node17" class="node">
<title>Mixed Exercise 2</title>
<ellipse fill="none" stroke="#000000" cx="1262.5642" cy="-18" rx="79.2942" ry="18"/>
<text text-anchor="middle" x="1262.5642" y="-13.8" font-family="Times,serif" font-size="14.00" fill="#000000">Mixed Exercise 2</text>
</g>
<!-- Chapter 2: Argand Diagrams&#45;&#45;Mixed Exercise 2 -->
<g id="edge16" class="edge">
<title>Chapter 2: Argand Diagrams--Mixed Exercise 2</title>
<path fill="none" stroke="#000000" d="M1066.0275,-73.9314C1110.1547,-61.3735 1170.885,-44.0905 1213.1127,-32.0732"/>
</g>
<!-- Ex3A -->
<g id="node19" class="node">
<title>Ex3A</title>
<ellipse fill="none" stroke="#000000" cx="1393.5642" cy="-18" rx="33.6286" ry="18"/>
<text text-anchor="middle" x="1393.5642" y="-13.8" font-family="Times,serif" font-size="14.00" fill="#000000">Ex3A</text>
</g>
<!-- Chapter 3: Series&#45;&#45;Ex3A -->
<g id="edge18" class="edge">
<title>Chapter 3: Series--Ex3A</title>
<path fill="none" stroke="#000000" d="M1509.5269,-73.6621C1481.8667,-60.3852 1443.4839,-41.9614 1418.5864,-30.0106"/>
</g>
<!-- Ex3B -->
<g id="node20" class="node">
<title>Ex3B</title>
<ellipse fill="none" stroke="#000000" cx="1478.5642" cy="-18" rx="33.0662" ry="18"/>
<text text-anchor="middle" x="1478.5642" y="-13.8" font-family="Times,serif" font-size="14.00" fill="#000000">Ex3B</text>
</g>
<!-- Chapter 3: Series&#45;&#45;Ex3B -->
<g id="edge19" class="edge">
<title>Chapter 3: Series--Ex3B</title>
<path fill="none" stroke="#000000" d="M1527.4968,-72.2022C1517.1207,-60.7088 1503.7121,-45.8561 1493.5556,-34.6058"/>
</g>
<!-- Mixed Exercise 3 -->
<g id="node21" class="node">
<title>Mixed Exercise 3</title>
<ellipse fill="none" stroke="#000000" cx="1608.5642" cy="-18" rx="79.2942" ry="18"/>
<text text-anchor="middle" x="1608.5642" y="-13.8" font-family="Times,serif" font-size="14.00" fill="#000000">Mixed Exercise 3</text>
</g>
<!-- Chapter 3: Series&#45;&#45;Mixed Exercise 3 -->
<g id="edge20" class="edge">
<title>Chapter 3: Series--Mixed Exercise 3</title>
<path fill="none" stroke="#000000" d="M1559.6316,-72.2022C1569.6318,-61.1252 1582.4487,-46.928 1592.4564,-35.8425"/>
</g>
<!-- Ex4A -->
<g id="node23" class="node">
<title>Ex4A</title>
<ellipse fill="none" stroke="#000000" cx="1739.5642" cy="-18" rx="33.6286" ry="18"/>
<text text-anchor="middle" x="1739.5642" y="-13.8" font-family="Times,serif" font-size="14.00" fill="#000000">Ex4A</text>
</g>
<!-- Chapter 4: Roots of Polynomials&#45;&#45;Ex4A -->
<g id="edge22" class="edge">
<title>Chapter 4: Roots of Polynomials--Ex4A</title>
<path fill="none" stroke="#000000" d="M1922.4814,-74.5391C1881.2038,-64.8855 1828.4538,-51.3855 1782.5642,-36 1777.0395,-34.1477 1771.2211,-31.9135 1765.7112,-29.6588"/>
</g>
<!-- Ex4B -->
<g id="node24" class="node">
<title>Ex4B</title>
<ellipse fill="none" stroke="#000000" cx="1824.5642" cy="-18" rx="33.0662" ry="18"/>
<text text-anchor="middle" x="1824.5642" y="-13.8" font-family="Times,serif" font-size="14.00" fill="#000000">Ex4B</text>
</g>
<!-- Chapter 4: Roots of Polynomials&#45;&#45;Ex4B -->
<g id="edge23" class="edge">
<title>Chapter 4: Roots of Polynomials--Ex4B</title>
<path fill="none" stroke="#000000" d="M1952.9429,-72.7628C1928.0095,-62.1739 1895.4304,-48.3225 1866.5642,-36 1861.4569,-33.8198 1856.0024,-31.4861 1850.7725,-29.2458"/>
</g>
<!-- Ex4C -->
<g id="node25" class="node">
<title>Ex4C</title>
<ellipse fill="none" stroke="#000000" cx="1908.5642" cy="-18" rx="33.0662" ry="18"/>
<text text-anchor="middle" x="1908.5642" y="-13.8" font-family="Times,serif" font-size="14.00" fill="#000000">Ex4C</text>
</g>
<!-- Chapter 4: Roots of Polynomials&#45;&#45;Ex4C -->
<g id="edge24" class="edge">
<title>Chapter 4: Roots of Polynomials--Ex4C</title>
<path fill="none" stroke="#000000" d="M1972.553,-72.2022C1958.3943,-60.209 1939.9177,-44.5583 1926.4607,-33.1594"/>
</g>
<!-- Ex4D -->
<g id="node26" class="node">
<title>Ex4D</title>
<ellipse fill="none" stroke="#000000" cx="1993.5642" cy="-18" rx="33.6286" ry="18"/>
<text text-anchor="middle" x="1993.5642" y="-13.8" font-family="Times,serif" font-size="14.00" fill="#000000">Ex4D</text>
</g>
<!-- Chapter 4: Roots of Polynomials&#45;&#45;Ex4D -->
<g id="edge25" class="edge">
<title>Chapter 4: Roots of Polynomials--Ex4D</title>
<path fill="none" stroke="#000000" d="M1993.5642,-71.8314C1993.5642,-61 1993.5642,-47.2876 1993.5642,-36.4133"/>
</g>
<!-- Ex4E -->
<g id="node27" class="node">
<title>Ex4E</title>
<ellipse fill="none" stroke="#000000" cx="2077.5642" cy="-18" rx="32.4846" ry="18"/>
<text text-anchor="middle" x="2077.5642" y="-13.8" font-family="Times,serif" font-size="14.00" fill="#000000">Ex4E</text>
</g>
<!-- Chapter 4: Roots of Polynomials&#45;&#45;Ex4E -->
<g id="edge26" class="edge">
<title>Chapter 4: Roots of Polynomials--Ex4E</title>
<path fill="none" stroke="#000000" d="M2014.3283,-72.2022C2028.3204,-60.209 2046.5796,-44.5583 2059.8783,-33.1594"/>
</g>
<!-- Mixed Exercise 4 -->
<g id="node28" class="node">
<title>Mixed Exercise 4</title>
<ellipse fill="none" stroke="#000000" cx="2207.5642" cy="-18" rx="79.2942" ry="18"/>
<text text-anchor="middle" x="2207.5642" y="-13.8" font-family="Times,serif" font-size="14.00" fill="#000000">Mixed Exercise 4</text>
</g>
<!-- Chapter 4: Roots of Polynomials&#45;&#45;Mixed Exercise 4 -->
<g id="edge27" class="edge">
<title>Chapter 4: Roots of Polynomials--Mixed Exercise 4</title>
<path fill="none" stroke="#000000" d="M2043.4676,-73.2101C2079.655,-61.0349 2128.1645,-44.7139 2163.0421,-32.9794"/>
</g>
<!-- Ex5A -->
<g id="node30" class="node">
<title>Ex5A</title>
<ellipse fill="none" stroke="#000000" cx="2338.5642" cy="-18" rx="33.6286" ry="18"/>
<text text-anchor="middle" x="2338.5642" y="-13.8" font-family="Times,serif" font-size="14.00" fill="#000000">Ex5A</text>
</g>
<!-- Chapter 5: Volumes of Revolution&#45;&#45;Ex5A -->
<g id="edge29" class="edge">
<title>Chapter 5: Volumes of Revolution--Ex5A</title>
<path fill="none" stroke="#000000" d="M2466.654,-72.5708C2435.0033,-59.0865 2392.1167,-40.8153 2364.8893,-29.2154"/>
</g>
<!-- Ex5B -->
<g id="node31" class="node">
<title>Ex5B</title>
<ellipse fill="none" stroke="#000000" cx="2423.5642" cy="-18" rx="33.0662" ry="18"/>
<text text-anchor="middle" x="2423.5642" y="-13.8" font-family="Times,serif" font-size="14.00" fill="#000000">Ex5B</text>
</g>
<!-- Chapter 5: Volumes of Revolution&#45;&#45;Ex5B -->
<g id="edge30" class="edge">
<title>Chapter 5: Volumes of Revolution--Ex5B</title>
<path fill="none" stroke="#000000" d="M2486.3675,-71.8314C2472.4673,-59.9169 2454.4999,-44.5163 2441.3464,-33.2418"/>
</g>
<!-- Ex5C -->
<g id="node32" class="node">
<title>Ex5C</title>
<ellipse fill="none" stroke="#000000" cx="2507.5642" cy="-18" rx="33.0662" ry="18"/>
<text text-anchor="middle" x="2507.5642" y="-13.8" font-family="Times,serif" font-size="14.00" fill="#000000">Ex5C</text>
</g>
<!-- Chapter 5: Volumes of Revolution&#45;&#45;Ex5C -->
<g id="edge31" class="edge">
<title>Chapter 5: Volumes of Revolution--Ex5C</title>
<path fill="none" stroke="#000000" d="M2507.5642,-71.8314C2507.5642,-61 2507.5642,-47.2876 2507.5642,-36.4133"/>
</g>
<!-- Ex5D -->
<g id="node33" class="node">
<title>Ex5D</title>
<ellipse fill="none" stroke="#000000" cx="2592.5642" cy="-18" rx="33.6286" ry="18"/>
<text text-anchor="middle" x="2592.5642" y="-13.8" font-family="Times,serif" font-size="14.00" fill="#000000">Ex5D</text>
</g>
<!-- Chapter 5: Volumes of Revolution&#45;&#45;Ex5D -->
<g id="edge32" class="edge">
<title>Chapter 5: Volumes of Revolution--Ex5D</title>
<path fill="none" stroke="#000000" d="M2529.0133,-71.8314C2543.079,-59.9169 2561.2603,-44.5163 2574.5704,-33.2418"/>
</g>
<!-- Mixed Exercise 5 -->
<g id="node34" class="node">
<title>Mixed Exercise 5</title>
<ellipse fill="none" stroke="#000000" cx="2723.5642" cy="-18" rx="79.2942" ry="18"/>
<text text-anchor="middle" x="2723.5642" y="-13.8" font-family="Times,serif" font-size="14.00" fill="#000000">Mixed Exercise 5</text>
</g>
<!-- Chapter 5: Volumes of Revolution&#45;&#45;Mixed Exercise 5 -->
<g id="edge33" class="edge">
<title>Chapter 5: Volumes of Revolution--Mixed Exercise 5</title>
<path fill="none" stroke="#000000" d="M2558.2066,-73.1192C2594.7418,-60.9408 2643.614,-44.6501 2678.7382,-32.942"/>
</g>
<!-- Ex6A -->
<g id="node36" class="node">
<title>Ex6A</title>
<ellipse fill="none" stroke="#000000" cx="2854.5642" cy="-18" rx="33.6286" ry="18"/>
<text text-anchor="middle" x="2854.5642" y="-13.8" font-family="Times,serif" font-size="14.00" fill="#000000">Ex6A</text>
</g>
<!-- Chapter 6: Matricies&#45;&#45;Ex6A -->
<g id="edge35" class="edge">
<title>Chapter 6: Matricies--Ex6A</title>
<path fill="none" stroke="#000000" d="M3015.1936,-75.0415C2981.6214,-64.7707 2936.6502,-50.4325 2897.5642,-36 2892.098,-33.9816 2886.3052,-31.6747 2880.8019,-29.4013"/>
</g>
<!-- Ex6B -->
<g id="node37" class="node">
<title>Ex6B</title>
<ellipse fill="none" stroke="#000000" cx="2939.5642" cy="-18" rx="33.0662" ry="18"/>
<text text-anchor="middle" x="2939.5642" y="-13.8" font-family="Times,serif" font-size="14.00" fill="#000000">Ex6B</text>
</g>
<!-- Chapter 6: Matricies&#45;&#45;Ex6B -->
<g id="edge36" class="edge">
<title>Chapter 6: Matricies--Ex6B</title>
<path fill="none" stroke="#000000" d="M3035.704,-72.937C3013.2898,-60.1289 2983.0519,-42.8501 2962.5143,-31.1144"/>
</g>
<!-- Ex6C -->
<g id="node38" class="node">
<title>Ex6C</title>
<ellipse fill="none" stroke="#000000" cx="3023.5642" cy="-18" rx="33.0662" ry="18"/>
<text text-anchor="middle" x="3023.5642" y="-13.8" font-family="Times,serif" font-size="14.00" fill="#000000">Ex6C</text>
</g>
<!-- Chapter 6: Matricies&#45;&#45;Ex6C -->
<g id="edge37" class="edge">
<title>Chapter 6: Matricies--Ex6C</title>
<path fill="none" stroke="#000000" d="M3054.9659,-71.8314C3048.4532,-60.6667 3040.1548,-46.441 3033.7246,-35.4177"/>
</g>
<!-- Ex6D -->
<g id="node39" class="node">
<title>Ex6D</title>
<ellipse fill="none" stroke="#000000" cx="3108.5642" cy="-18" rx="33.6286" ry="18"/>
<text text-anchor="middle" x="3108.5642" y="-13.8" font-family="Times,serif" font-size="14.00" fill="#000000">Ex6D</text>
</g>
<!-- Chapter 6: Matricies&#45;&#45;Ex6D -->
<g id="edge38" class="edge">
<title>Chapter 6: Matricies--Ex6D</title>
<path fill="none" stroke="#000000" d="M3076.4149,-71.8314C3083.0827,-60.6667 3091.5786,-46.441 3098.162,-35.4177"/>
</g>
<!-- Ex6E -->
<g id="node40" class="node">
<title>Ex6E</title>
<ellipse fill="none" stroke="#000000" cx="3192.5642" cy="-18" rx="32.4846" ry="18"/>
<text text-anchor="middle" x="3192.5642" y="-13.8" font-family="Times,serif" font-size="14.00" fill="#000000">Ex6E</text>
</g>
<!-- Chapter 6: Matricies&#45;&#45;Ex6E -->
<g id="edge39" class="edge">
<title>Chapter 6: Matricies--Ex6E</title>
<path fill="none" stroke="#000000" d="M3095.6615,-72.937C3118.4002,-60.0457 3149.1276,-42.6255 3169.834,-30.8864"/>
</g>
<!-- Ex6F -->
<g id="node41" class="node">
<title>Ex6F</title>
<ellipse fill="none" stroke="#000000" cx="3274.5642" cy="-18" rx="31.9224" ry="18"/>
<text text-anchor="middle" x="3274.5642" y="-13.8" font-family="Times,serif" font-size="14.00" fill="#000000">Ex6F</text>
</g>
<!-- Chapter 6: Matricies&#45;&#45;Ex6F -->
<g id="edge40" class="edge">
<title>Chapter 6: Matricies--Ex6F</title>
<path fill="none" stroke="#000000" d="M3116.761,-75.0382C3150.2863,-64.8756 3194.8907,-50.6604 3233.5642,-36 3238.798,-34.016 3244.3309,-31.7242 3249.5807,-29.4546"/>
</g>
<!-- Mixed Exercise 6 -->
<g id="node42" class="node">
<title>Mixed Exercise 6</title>
<ellipse fill="none" stroke="#000000" cx="3403.5642" cy="-18" rx="79.2942" ry="18"/>
<text text-anchor="middle" x="3403.5642" y="-13.8" font-family="Times,serif" font-size="14.00" fill="#000000">Mixed Exercise 6</text>
</g>
<!-- Chapter 6: Matricies&#45;&#45;Mixed Exercise 6 -->
<g id="edge41" class="edge">
<title>Chapter 6: Matricies--Mixed Exercise 6</title>
<path fill="none" stroke="#000000" d="M3127.5586,-76.7941C3189.7835,-63.5391 3284.8865,-43.2805 3345.6311,-30.3408"/>
</g>
<!-- Ex7A -->
<g id="node44" class="node">
<title>Ex7A</title>
<ellipse fill="none" stroke="#000000" cx="3534.5642" cy="-18" rx="33.6286" ry="18"/>
<text text-anchor="middle" x="3534.5642" y="-13.8" font-family="Times,serif" font-size="14.00" fill="#000000">Ex7A</text>
</g>
<!-- Chapter 7: Linear Transformations&#45;&#45;Ex7A -->
<g id="edge43" class="edge">
<title>Chapter 7: Linear Transformations--Ex7A</title>
<path fill="none" stroke="#000000" d="M3689.5383,-73.3059C3656.6792,-63.189 3614.4947,-49.6366 3577.5642,-36 3572.098,-33.9816 3566.3052,-31.6747 3560.8019,-29.4013"/>
</g>
<!-- Ex7B -->
<g id="node45" class="node">
<title>Ex7B</title>
<ellipse fill="none" stroke="#000000" cx="3619.5642" cy="-18" rx="33.0662" ry="18"/>
<text text-anchor="middle" x="3619.5642" y="-13.8" font-family="Times,serif" font-size="14.00" fill="#000000">Ex7B</text>
</g>
<!-- Chapter 7: Linear Transformations&#45;&#45;Ex7B -->
<g id="edge44" class="edge">
<title>Chapter 7: Linear Transformations--Ex7B</title>
<path fill="none" stroke="#000000" d="M3714.7412,-72.3868C3692.4473,-59.6475 3662.805,-42.709 3642.5612,-31.1411"/>
</g>
<!-- Ex7C -->
<g id="node46" class="node">
<title>Ex7C</title>
<ellipse fill="none" stroke="#000000" cx="3703.5642" cy="-18" rx="33.0662" ry="18"/>
<text text-anchor="middle" x="3703.5642" y="-13.8" font-family="Times,serif" font-size="14.00" fill="#000000">Ex7C</text>
</g>
<!-- Chapter 7: Linear Transformations&#45;&#45;Ex7C -->
<g id="edge45" class="edge">
<title>Chapter 7: Linear Transformations--Ex7C</title>
<path fill="none" stroke="#000000" d="M3734.9659,-71.8314C3728.4532,-60.6667 3720.1548,-46.441 3713.7246,-35.4177"/>
</g>
<!-- Ex7D -->
<g id="node47" class="node">
<title>Ex7D</title>
<ellipse fill="none" stroke="#000000" cx="3788.5642" cy="-18" rx="33.6286" ry="18"/>
<text text-anchor="middle" x="3788.5642" y="-13.8" font-family="Times,serif" font-size="14.00" fill="#000000">Ex7D</text>
</g>
<!-- Chapter 7: Linear Transformations&#45;&#45;Ex7D -->
<g id="edge46" class="edge">
<title>Chapter 7: Linear Transformations--Ex7D</title>
<path fill="none" stroke="#000000" d="M3756.4149,-71.8314C3763.0827,-60.6667 3771.5786,-46.441 3778.162,-35.4177"/>
</g>
<!-- Ex7E -->
<g id="node48" class="node">
<title>Ex7E</title>
<ellipse fill="none" stroke="#000000" cx="3872.5642" cy="-18" rx="32.4846" ry="18"/>
<text text-anchor="middle" x="3872.5642" y="-13.8" font-family="Times,serif" font-size="14.00" fill="#000000">Ex7E</text>
</g>
<!-- Chapter 7: Linear Transformations&#45;&#45;Ex7E -->
<g id="edge47" class="edge">
<title>Chapter 7: Linear Transformations--Ex7E</title>
<path fill="none" stroke="#000000" d="M3776.6319,-72.3868C3799.2496,-59.5642 3829.3711,-42.4874 3849.7836,-30.915"/>
</g>
<!-- Ex7F -->
<g id="node49" class="node">
<title>Ex7F</title>
<ellipse fill="none" stroke="#000000" cx="3954.5642" cy="-18" rx="31.9224" ry="18"/>
<text text-anchor="middle" x="3954.5642" y="-13.8" font-family="Times,serif" font-size="14.00" fill="#000000">Ex7F</text>
</g>
<!-- Chapter 7: Linear Transformations&#45;&#45;Ex7F -->
<g id="edge48" class="edge">
<title>Chapter 7: Linear Transformations--Ex7F</title>
<path fill="none" stroke="#000000" d="M3802.4482,-73.3075C3835.224,-63.2948 3877.0392,-49.8459 3913.5642,-36 3918.798,-34.016 3924.3309,-31.7242 3929.5807,-29.4546"/>
</g>
<!-- Mixed Exercise 7 -->
<g id="node50" class="node">
<title>Mixed Exercise 7</title>
<ellipse fill="none" stroke="#000000" cx="4083.5642" cy="-18" rx="79.2942" ry="18"/>
<text text-anchor="middle" x="4083.5642" y="-13.8" font-family="Times,serif" font-size="14.00" fill="#000000">Mixed Exercise 7</text>
</g>
<!-- Chapter 7: Linear Transformations&#45;&#45;Mixed Exercise 7 -->
<g id="edge49" class="edge">
<title>Chapter 7: Linear Transformations--Mixed Exercise 7</title>
<path fill="none" stroke="#000000" d="M3818.9052,-74.3771C3880.9384,-61.1629 3968.6109,-42.4871 4025.7676,-30.3117"/>
</g>
<!-- Ex8A -->
<g id="node52" class="node">
<title>Ex8A</title>
<ellipse fill="none" stroke="#000000" cx="4214.5642" cy="-18" rx="33.6286" ry="18"/>
<text text-anchor="middle" x="4214.5642" y="-13.8" font-family="Times,serif" font-size="14.00" fill="#000000">Ex8A</text>
</g>
<!-- Chapter 8: Proof by Induction&#45;&#45;Ex8A -->
<g id="edge51" class="edge">
<title>Chapter 8: Proof by Induction--Ex8A</title>
<path fill="none" stroke="#000000" d="M4278.553,-72.2022C4264.4927,-60.2923 4246.1741,-44.7755 4232.7418,-33.3975"/>
</g>
<!-- Ex8B -->
<g id="node53" class="node">
<title>Ex8B</title>
<ellipse fill="none" stroke="#000000" cx="4299.5642" cy="-18" rx="33.0662" ry="18"/>
<text text-anchor="middle" x="4299.5642" y="-13.8" font-family="Times,serif" font-size="14.00" fill="#000000">Ex8B</text>
</g>
<!-- Chapter 8: Proof by Induction&#45;&#45;Ex8B -->
<g id="edge52" class="edge">
<title>Chapter 8: Proof by Induction--Ex8B</title>
<path fill="none" stroke="#000000" d="M4299.5642,-71.8314C4299.5642,-61 4299.5642,-47.2876 4299.5642,-36.4133"/>
</g>
<!-- Ex8C -->
<g id="node54" class="node">
<title>Ex8C</title>
<ellipse fill="none" stroke="#000000" cx="4383.5642" cy="-18" rx="33.0662" ry="18"/>
<text text-anchor="middle" x="4383.5642" y="-13.8" font-family="Times,serif" font-size="14.00" fill="#000000">Ex8C</text>
</g>
<!-- Chapter 8: Proof by Induction&#45;&#45;Ex8C -->
<g id="edge53" class="edge">
<title>Chapter 8: Proof by Induction--Ex8C</title>
<path fill="none" stroke="#000000" d="M4320.3283,-72.2022C4334.2232,-60.2923 4352.3262,-44.7755 4365.6005,-33.3975"/>
</g>
<!-- Mixed Exercise 8 -->
<g id="node55" class="node">
<title>Mixed Exercise 8</title>
<ellipse fill="none" stroke="#000000" cx="4513.5642" cy="-18" rx="79.2942" ry="18"/>
<text text-anchor="middle" x="4513.5642" y="-13.8" font-family="Times,serif" font-size="14.00" fill="#000000">Mixed Exercise 8</text>
</g>
<!-- Chapter 8: Proof by Induction&#45;&#45;Mixed Exercise 8 -->
<g id="edge54" class="edge">
<title>Chapter 8: Proof by Induction--Mixed Exercise 8</title>
<path fill="none" stroke="#000000" d="M4348.9289,-73.3913C4385.2191,-61.1815 4434.117,-44.7299 4469.1776,-32.9338"/>
</g>
<!-- Ex9A -->
<g id="node57" class="node">
<title>Ex9A</title>
<ellipse fill="none" stroke="#000000" cx="4644.5642" cy="-18" rx="33.6286" ry="18"/>
<text text-anchor="middle" x="4644.5642" y="-13.8" font-family="Times,serif" font-size="14.00" fill="#000000">Ex9A</text>
</g>
<!-- Chapter 9: Vectors&#45;&#45;Ex9A -->
<g id="edge56" class="edge">
<title>Chapter 9: Vectors--Ex9A</title>
<path fill="none" stroke="#000000" d="M4806.3003,-75.3799C4772.6141,-65.0869 4727.0813,-50.5917 4687.5642,-36 4682.098,-33.9816 4676.3052,-31.6747 4670.8019,-29.4013"/>
</g>
<!-- Ex9B -->
<g id="node58" class="node">
<title>Ex9B</title>
<ellipse fill="none" stroke="#000000" cx="4729.5642" cy="-18" rx="33.0662" ry="18"/>
<text text-anchor="middle" x="4729.5642" y="-13.8" font-family="Times,serif" font-size="14.00" fill="#000000">Ex9B</text>
</g>
<!-- Chapter 9: Vectors&#45;&#45;Ex9B -->
<g id="edge57" class="edge">
<title>Chapter 9: Vectors--Ex9B</title>
<path fill="none" stroke="#000000" d="M4826.0228,-73.1192C4803.6196,-60.3173 4773.264,-42.9713 4752.631,-31.181"/>
</g>
<!-- Ex9C -->
<g id="node59" class="node">
<title>Ex9C</title>
<ellipse fill="none" stroke="#000000" cx="4813.5642" cy="-18" rx="33.0662" ry="18"/>
<text text-anchor="middle" x="4813.5642" y="-13.8" font-family="Times,serif" font-size="14.00" fill="#000000">Ex9C</text>
</g>
<!-- Chapter 9: Vectors&#45;&#45;Ex9C -->
<g id="edge58" class="edge">
<title>Chapter 9: Vectors--Ex9C</title>
<path fill="none" stroke="#000000" d="M4844.9659,-71.8314C4838.4532,-60.6667 4830.1548,-46.441 4823.7246,-35.4177"/>
</g>
<!-- Ex9D -->
<g id="node60" class="node">
<title>Ex9D</title>
<ellipse fill="none" stroke="#000000" cx="4898.5642" cy="-18" rx="33.6286" ry="18"/>
<text text-anchor="middle" x="4898.5642" y="-13.8" font-family="Times,serif" font-size="14.00" fill="#000000">Ex9D</text>
</g>
<!-- Chapter 9: Vectors&#45;&#45;Ex9D -->
<g id="edge59" class="edge">
<title>Chapter 9: Vectors--Ex9D</title>
<path fill="none" stroke="#000000" d="M4866.4149,-71.8314C4873.0827,-60.6667 4881.5786,-46.441 4888.162,-35.4177"/>
</g>
<!-- Ex9E -->
<g id="node61" class="node">
<title>Ex9E</title>
<ellipse fill="none" stroke="#000000" cx="4982.5642" cy="-18" rx="32.4846" ry="18"/>
<text text-anchor="middle" x="4982.5642" y="-13.8" font-family="Times,serif" font-size="14.00" fill="#000000">Ex9E</text>
</g>
<!-- Chapter 9: Vectors&#45;&#45;Ex9E -->
<g id="edge60" class="edge">
<title>Chapter 9: Vectors--Ex9E</title>
<path fill="none" stroke="#000000" d="M4885.3401,-73.1192C4908.0678,-60.2342 4938.9153,-42.7458 4959.7182,-30.9521"/>
</g>
<!-- Ex9F -->
<g id="node62" class="node">
<title>Ex9F</title>
<ellipse fill="none" stroke="#000000" cx="5064.5642" cy="-18" rx="31.9224" ry="18"/>
<text text-anchor="middle" x="5064.5642" y="-13.8" font-family="Times,serif" font-size="14.00" fill="#000000">Ex9F</text>
</g>
<!-- Chapter 9: Vectors&#45;&#45;Ex9F -->
<g id="edge61" class="edge">
<title>Chapter 9: Vectors--Ex9F</title>
<path fill="none" stroke="#000000" d="M4905.2783,-75.4872C4938.9634,-65.2967 4984.3177,-50.8776 5023.5642,-36 5028.798,-34.016 5034.3309,-31.7242 5039.5807,-29.4546"/>
</g>
<!-- Mixed Exercise 9 -->
<g id="node63" class="node">
<title>Mixed Exercise 9</title>
<ellipse fill="none" stroke="#000000" cx="5193.5642" cy="-18" rx="79.2942" ry="18"/>
<text text-anchor="middle" x="5193.5642" y="-13.8" font-family="Times,serif" font-size="14.00" fill="#000000">Mixed Exercise 9</text>
</g>
<!-- Chapter 9: Vectors&#45;&#45;Mixed Exercise 9 -->
<g id="edge62" class="edge">
<title>Chapter 9: Vectors--Mixed Exercise 9</title>
<path fill="none" stroke="#000000" d="M4915.2138,-77.2936C4977.3756,-64.052 5074.1277,-43.4421 5135.6401,-30.3389"/>
</g>
</g>
</svg>